<svg width="100" height="100" viewBox="0 0 100 100" fill="none" xmlns="http://www.w3.org/2000/svg">
<circle cx="50" cy="50" r="50" fill="#111460"/>
<path fill-rule="evenodd" clip-rule="evenodd" d="M38.5186 39.8766C38.5186 33.5355 43.659 28.3951 50 28.3951C56.3411 28.3951 61.4815 33.5355 61.4815 39.8766V49.1358C61.4815 51.045 59.9339 52.5926 58.0247 52.5926C56.1156 52.5926 54.5679 51.045 54.5679 49.1358V39.8766C54.5679 37.3538 52.5228 35.3087 50 35.3087C47.4773 35.3087 45.4321 37.3538 45.4321 39.8766V49.1358C45.4321 51.045 43.8845 52.5926 41.9753 52.5926C40.0662 52.5926 38.5186 51.045 38.5186 49.1358V39.8766Z" fill="#E3E6FA"/>
<path fill-rule="evenodd" clip-rule="evenodd" d="M40.4248 60.2634C42.2038 59.5345 44.2433 60.3702 44.9802 62.13C45.2533 62.7821 45.6535 63.3746 46.158 63.8737C46.6626 64.3727 47.2615 64.7686 47.9207 65.0387C48.5799 65.3088 49.2865 65.4479 50 65.4479C50.7135 65.4479 51.4201 65.3088 52.0793 65.0387C52.7385 64.7686 53.3374 64.3727 53.842 63.8737C54.3465 63.3746 54.7467 62.7821 55.0198 62.13C55.7567 60.3702 57.7962 59.5345 59.5752 60.2634C61.3542 60.9924 62.199 63.0099 61.4621 64.7696C60.8386 66.2586 59.9248 67.6115 58.7727 68.7511C57.6207 69.8907 56.253 70.7947 54.7478 71.4115C53.2425 72.0282 51.6292 72.3457 50 72.3457C48.3708 72.3457 46.7575 72.0282 45.2523 71.4115C43.747 70.7947 42.3793 69.8907 41.2273 68.7511C40.0753 67.6115 39.1614 66.2586 38.5379 64.7696C37.801 63.0099 38.6458 60.9924 40.4248 60.2634Z" fill="#E3E6FA"/>
<circle cx="73.4568" cy="48.2715" r="4.32099" fill="#E3E6FA"/>
<ellipse cx="26.5432" cy="48.2715" rx="4.32099" ry="4.32099" fill="#E3E6FA"/>
</svg>
